<svg width="200" height="76" viewBox="0 0 200 76" fill="none" xmlns="http://www.w3.org/2000/svg">
<path d="M16.992 57.1856C16.908 57.0784 16.7863 57.0176 16.6617 57.0176H3.49051C3.36595 57.0176 3.24429 57.0784 3.16028 57.1856L0.121661 60.986C0.0434503 61.0845 0 61.212 0 61.3452V71.5097C0 71.6429 0.0434503 71.7704 0.121661 71.866L3.16028 75.678C3.24429 75.7852 3.36595 75.846 3.49051 75.846H16.6588C16.7863 75.846 16.9051 75.7852 16.9891 75.678L20.0277 71.866C20.1059 71.7675 20.1493 71.64 20.1493 71.5097V68.9693C20.1493 68.6796 19.9466 68.4421 19.6975 68.4421H16.6675C16.4184 68.4421 16.2156 68.6767 16.2156 68.9664L16.207 70.6552L14.9324 72.2541H5.20824L3.94239 70.6668V62.1824L5.20824 60.5834L14.944 60.595L16.2156 62.1824L16.207 63.8914C16.207 64.0305 16.2533 64.1666 16.3402 64.2651C16.4242 64.3636 16.5401 64.4186 16.6617 64.4186L19.7004 64.407C19.9495 64.407 20.1522 64.1695 20.1522 63.8798V61.3394C20.1522 61.2062 20.1088 61.0787 20.0306 60.9802L16.992 57.1798V57.1856Z" fill="#686970"/>
<path d="M41.4921 57.1856C41.4081 57.0784 41.2865 57.0176 41.1619 57.0176H27.9936C27.869 57.0176 27.7474 57.0784 27.6634 57.1856L24.6247 60.986C24.5465 61.0845 24.5031 61.212 24.5031 61.3452V71.5097C24.5031 71.6429 24.5465 71.7704 24.6247 71.866L27.6634 75.678C27.7474 75.7852 27.869 75.846 27.9936 75.846H41.1619C41.2894 75.846 41.4081 75.7852 41.4921 75.678L44.5308 71.866C44.609 71.7675 44.6524 71.64 44.6524 71.5097V61.3452C44.6524 61.212 44.609 61.0845 44.5308 60.986L41.4921 57.1856ZM29.7084 72.2541L28.4426 70.6668V62.1824L29.7084 60.5834L39.4442 60.595L40.7187 62.1824L40.71 70.6494L39.4355 72.2484H29.7113L29.7084 72.2541Z" fill="#686970"/>
<path d="M65.9923 57.1855C65.9083 57.0783 65.7866 57.0174 65.6621 57.0174L49.4551 57.0059C49.3364 57.0059 49.2205 57.0609 49.1365 57.1594C49.0525 57.2579 49.0032 57.3911 49.0032 57.5302V75.3187C49.0032 75.6084 49.206 75.8459 49.4551 75.8459H65.6621C65.7895 75.8459 65.9083 75.7851 65.9923 75.6779L69.0309 71.8659C69.1091 71.7674 69.1526 71.6399 69.1526 71.5096V61.3451C69.1526 61.2118 69.1091 61.0844 69.0309 60.9859L65.9923 57.1855ZM65.2189 69.7078L65.2102 70.6521L63.9328 72.254H52.9427V60.5862L63.9443 60.5977L65.2189 62.1851L65.2102 69.6006C65.2102 69.6354 65.2131 69.6731 65.2189 69.7078Z" fill="#686970"/>
<path d="M93.2009 72.2546H78.7088L77.4429 70.6672V68.2224H91.1732C91.4223 68.2224 91.6251 67.9877 91.6251 67.6952V65.1548C91.6251 64.8651 91.4223 64.6276 91.1732 64.6276H77.4429V62.1828L78.7088 60.5838L93.198 60.5954C93.3167 60.5954 93.4326 60.5404 93.5166 60.4419C93.6006 60.3434 93.6499 60.2101 93.6499 60.0682V57.5394C93.6499 57.2497 93.4471 57.0122 93.198 57.0122H76.991C76.8665 57.0122 76.7448 57.073 76.6608 57.1802L73.6222 60.9807C73.544 61.0792 73.5005 61.2066 73.5005 61.3399V71.5043C73.5005 71.6376 73.544 71.765 73.6222 71.8606L76.6608 75.6727C76.7448 75.7798 76.8665 75.8407 76.991 75.8407H93.2096C93.3283 75.8407 93.4442 75.7856 93.5311 75.6842C93.6151 75.5858 93.6643 75.4496 93.6643 75.3106L93.6528 72.7702C93.6528 72.4805 93.45 72.2459 93.2009 72.2459V72.2546Z" fill="#686970"/>
<path d="M117.701 57.0059H114.662C114.413 57.0059 114.21 57.2405 114.21 57.5331V64.6299H101.946V57.5331C101.946 57.2434 101.743 57.0059 101.494 57.0059H98.4554C98.2063 57.0059 98.0035 57.2405 98.0035 57.5331V75.3216C98.0035 75.6113 98.2063 75.8488 98.4554 75.8488H101.494C101.743 75.8488 101.946 75.6142 101.946 75.3216V68.2247H114.21V75.3216C114.21 75.6113 114.413 75.8488 114.662 75.8488H117.701C117.95 75.8488 118.153 75.6142 118.153 75.3216V57.5331C118.153 57.2434 117.95 57.0059 117.701 57.0059Z" fill="#92BD3B"/>
<path d="M125.991 57.0059H122.953C122.704 57.0059 122.501 57.2405 122.501 57.5331V75.3216C122.501 75.6113 122.704 75.8488 122.953 75.8488H125.991C126.24 75.8488 126.443 75.6142 126.443 75.3216V57.5331C126.443 57.2434 126.24 57.0059 125.991 57.0059Z" fill="#92BD3B"/>
<path d="M150.492 72.2554H135.999L134.734 70.6681V57.5316C134.734 57.2419 134.531 57.0044 134.282 57.0044H131.243C130.994 57.0044 130.791 57.239 130.791 57.5316V71.5081C130.791 71.6413 130.835 71.7688 130.913 71.8644L133.951 75.6764C134.035 75.7836 134.157 75.8444 134.282 75.8444H150.5C150.619 75.8444 150.735 75.7894 150.822 75.688C150.906 75.5895 150.955 75.4534 150.955 75.3143L150.943 72.7739C150.943 72.4843 150.741 72.2497 150.492 72.2497V72.2554Z" fill="#92BD3B"/>
<path d="M174.992 72.2554H160.5L159.234 70.6681V57.5316C159.234 57.2419 159.031 57.0044 158.782 57.0044H155.743C155.494 57.0044 155.291 57.239 155.291 57.5316V71.5081C155.291 71.6413 155.335 71.7688 155.413 71.8644L158.452 75.6764C158.536 75.7836 158.657 75.8444 158.782 75.8444H175C175.119 75.8444 175.235 75.7894 175.322 75.688C175.406 75.5895 175.455 75.4534 175.455 75.3143L175.444 72.7739C175.444 72.4843 175.241 72.2497 174.992 72.2497V72.2554Z" fill="#92BD3B"/>
<path d="M185.003 60.5868L199.492 60.5983C199.611 60.5983 199.726 60.5433 199.81 60.4448C199.894 60.3463 199.944 60.2131 199.944 60.0711V57.5423C199.944 57.2527 199.741 57.0151 199.492 57.0151H183.285C183.16 57.0151 183.039 57.076 182.955 57.1831L179.916 60.9836C179.838 61.0821 179.794 61.2095 179.794 61.3428V67.6952C179.794 67.9849 179.997 68.2195 180.246 68.2224L196.001 68.234V70.6788L194.735 72.2778L180.246 72.2662C180.127 72.2662 180.012 72.3212 179.928 72.4197C179.844 72.5182 179.794 72.6514 179.794 72.7934V75.3222C179.794 75.6119 179.997 75.8494 180.246 75.8494H196.453C196.578 75.8494 196.699 75.7886 196.783 75.6814L199.822 71.8809C199.9 71.7824 199.944 71.655 199.944 71.5217V65.1693C199.944 64.8796 199.741 64.645 199.492 64.6421L183.737 64.6305V62.1857L185.003 60.5868Z" fill="#92BD3B"/>
<path d="M97.7921 39.0682C96.6479 39.0682 95.5037 39.0363 94.3624 39.0768C93.2588 39.1174 92.4448 38.6626 91.7844 37.8226C90.3158 35.9629 88.8443 34.1061 87.364 32.258C86.0432 30.6127 84.5803 30.6156 83.2537 32.2696C81.7908 34.0945 80.328 35.9224 78.8941 37.7733C78.2134 38.6539 77.3792 39.0913 76.2495 39.0739C74.1059 39.0392 71.9595 39.0218 69.8188 39.0797C68.4863 39.1145 67.3682 38.8596 66.7512 37.5503C66.0908 36.1425 66.1574 34.7608 67.1046 33.5123C68.2256 32.035 69.4075 30.604 70.5662 29.1528C74.8098 23.8461 79.0506 18.5364 83.2971 13.2297C84.5716 11.6365 86.0547 11.6394 87.338 13.2471C92.6679 19.9153 97.9978 26.5834 103.322 33.2574C104.567 34.8187 104.617 36.7624 103.493 38.1354C102.986 38.7524 102.357 39.0653 101.564 39.0653C100.306 39.0653 99.0493 39.0653 97.7892 39.0653L97.7921 39.0682Z" fill="#92BD3B"/>
<path d="M125.05 33.2601C121.809 29.1989 103.029 6.31512 99.9907 2.56102C99.814 2.34087 99.6344 2.15548 99.4519 1.99037C99.3447 1.85713 99.2346 1.72677 99.1274 1.59353C97.8877 0.0843539 95.5819 -0.645611 94.0206 0.727418C92.888 1.72098 91.9813 2.94628 91.0051 4.08757C90.1275 5.1101 89.2671 6.52369 89.6234 7.92858C89.7798 8.54557 90.1159 9.10174 90.4635 9.63473C93.1458 13.7509 96.4451 17.5021 99.5735 21.2794C100.002 21.7979 100.445 22.3106 100.863 22.8407C106.181 29.6132 112.69 36.7854 113.509 37.8253C114.17 38.6624 114.987 39.1201 116.088 39.0795C117.229 39.0361 118.373 39.0708 119.517 39.0708C120.774 39.0708 122.032 39.0708 123.292 39.0708C124.085 39.0708 124.717 38.758 125.221 38.141C126.348 36.768 126.298 34.8272 125.05 33.263V33.2601Z" fill="#377CBF"/>
</svg>
