<svg width="226" height="31" viewBox="0 0 226 31" fill="none" xmlns="http://www.w3.org/2000/svg">
<g clip-path="url(#clip0_1127_1952)">
<path d="M203.914 0.232224H197.79V30.3797H203.914V0.232224Z" fill="white"/>
<path d="M160.387 27.3353L149.561 1.29709L146.286 9.23258L154.975 30.2183H158.748H161.598L160.387 27.3353Z" fill="white"/>
<path d="M186.597 0.14444V19.5442L172.497 0.14444H166.584V30.2183H172.709V10.6005L186.883 30.2183H192.722V0.14444H186.597Z" fill="white"/>
<path d="M204.972 7.35775L218.004 15.4348L204.972 23.1523V30.0767L224.059 19.1137C225.057 18.2499 225.768 17.0236 225.768 15.5793C225.768 13.7044 224.629 12.0448 222.991 11.3255L205.827 0.866614L205.187 0.506939L204.974 0.362503V7.35775H204.972Z" fill="white"/>
<path d="M139.378 23.1523L148.92 0.14444H142.298L141.87 1.2263L132.756 23.1523H139.378Z" fill="#AACEDE"/>
<path d="M138.88 24.0897H125.205V0.0736389H119.15V30.1475H136.386L138.88 24.0897Z" fill="white"/>
<path d="M66.3065 24.0897V6.05782H72.8591C75.2084 6.05782 77.0598 6.92444 78.4861 8.65484C79.9096 10.3852 80.6227 12.4782 80.6227 15.0723C80.6227 17.6665 79.9096 19.7594 78.4861 21.4927C77.0626 23.2231 75.2112 24.0897 72.8591 24.0897H66.3065ZM78.1281 1.01105C76.4892 0.288872 74.7105 0 72.9291 0H60.1818V30.1475H72.9291C74.7105 30.1475 76.4193 29.7878 78.1281 29.1365C79.7669 28.4143 81.2632 27.4061 82.5441 26.1061C85.3212 23.2202 86.7447 19.5414 86.7447 15.0723C86.7447 10.6033 85.3212 6.92444 82.5441 4.03855C81.2632 2.74146 79.7669 1.7304 78.1281 1.00822" fill="white"/>
<path d="M114.163 24.0161H91.5158V30.0739H114.163V24.0161Z" fill="white"/>
<path d="M112.527 11.9712H91.5158V18.029H112.527V11.9712Z" fill="white"/>
<path d="M114.163 0.288879H91.5158V6.3467H114.163V0.288879Z" fill="white"/>
<path d="M40.5239 24.1605C37.8167 24.1605 35.7528 23.2967 34.1139 21.5635C32.5478 19.9039 31.7647 17.7402 31.7647 15.0723C31.7647 12.4045 32.5478 10.2408 34.1139 8.58121C35.7528 6.85081 37.8167 5.98419 40.5239 5.98419C43.2311 5.98419 45.2951 6.85081 46.9339 8.58121C48.5001 10.2408 49.2831 12.4045 49.2831 15.0723C49.2831 17.7402 48.5001 19.9039 46.9339 21.5635C45.2951 23.2939 43.1584 24.1605 40.5239 24.1605ZM40.5239 0C36.2506 0 32.6177 1.51516 29.8406 4.40106C27.1334 7.21331 25.7798 10.8186 25.7798 15.0752C25.7798 19.3318 27.1334 22.8662 29.8406 25.7493C32.6177 28.706 36.1779 30.1504 40.5239 30.1504C44.87 30.1504 48.4301 28.6352 51.2072 25.7493C53.9144 22.937 55.268 19.3318 55.268 15.0752C55.268 10.8186 53.9144 7.28695 51.2072 4.40106C48.3574 1.51516 44.7972 0 40.5239 0Z" fill="white"/>
<path d="M20.7961 22.9342L7.69087 14.8571L20.7961 7.21332V0.288879L1.70877 11.2519C0.64044 12.1157 0 13.3419 0 14.7863C0 16.6611 1.13825 18.3208 2.7771 19.0401L19.8704 29.499L20.5109 29.8587L20.7234 30.0031V22.9342H20.7933H20.7961Z" fill="white"/>
</g>
<defs>
<clipPath id="clip0_1127_1952">
<rect width="225.768" height="30.3797" fill="white"/>
</clipPath>
</defs>
</svg>
